<mxfile host="app.diagrams.net" agent="Mozilla/5.0 (Macintosh; Intel Mac OS X 10_15_7) AppleWebKit/605.1.15 (KHTML, like Gecko) Version/18.4 Safari/605.1.15" version="26.2.15">
  <diagram id="3d-map-implementation" name="3D Map Implementation">
    <mxGraphModel dx="1697" dy="1122" grid="1" gridSize="10" guides="1" tooltips="1" connect="1" arrows="1" fold="1" page="1" pageScale="1" pageWidth="1700" pageHeight="1100" background="#ffffff" math="0" shadow="0">
      <root>
        <mxCell id="0" />
        <mxCell id="1" parent="0" />
        <mxCell id="title" value="3D Neighborhood Go-Kart Game - Map Class Implementation with Class Interactions" style="text;html=1;strokeColor=none;fillColor=none;align=center;verticalAlign=middle;whiteSpace=wrap;rounded=0;fontSize=24;fontStyle=1" parent="1" vertex="1">
          <mxGeometry x="250" y="20" width="1200" height="40" as="geometry" />
        </mxCell>
        <mxCell id="class_definitions" value="Key Classes:&#xa;- Map3D: Main map management class&#xa;- Cesium3DTileset: Handles 3D tileset rendering&#xa;- CesiumIonRasterOverlay: Manages map imagery&#xa;- CesiumGeoreference: Handles geographic positioning&#xa;- CesiumSubScene: Manages local map section&#xa;- PowerUpItem: Represents power-up objects&#xa;- Obstacle: Represents obstacle objects&#xa;- Checkpoint: Represents race checkpoints&#xa;- GameManager: Coordinates game flow&#xa;- RaceController: Manages race logic" style="rounded=0;whiteSpace=wrap;html=1;fillColor=#f5f5f5;strokeColor=#666666;fontColor=#333333;align=left;verticalAlign=top;fontSize=12;spacingLeft=5;spacingTop=5;" parent="1" vertex="1">
          <mxGeometry x="1400" y="80" width="280" height="180" as="geometry" />
        </mxCell>
        <mxCell id="start" value="Start Game&#xa;(GameManager.StartGame())" style="ellipse;whiteSpace=wrap;html=1;fillColor=#d5e8d4;strokeColor=#82b366;" parent="1" vertex="1">
          <mxGeometry x="700" y="80" width="180" height="60" as="geometry" />
        </mxCell>
        <mxCell id="init" value="Initialize Map3D&#xa;Class: Map3D&#xa;Function: Initialize(latitude, longitude, radius, settings)&#xa;Variables Set: MapName, MapScale, MapCenter&#xa;Parameters: Map3DSettings object with map properties" style="rounded=0;whiteSpace=wrap;html=1;fillColor=#dae8fc;strokeColor=#6c8ebf;align=left;spacingLeft=5;" parent="1" vertex="1">
          <mxGeometry x="640" y="180" width="300" height="90" as="geometry" />
        </mxCell>
        <mxCell id="api_config" value="Configure API Keys&#xa;Class: GameManager&#xa;Variables: googleMapsApiKey, cesiumIonAccessToken&#xa;Actions: Set tokens for external API access&#xa;Dependencies: Google Maps Platform, Cesium ION" style="rounded=0;whiteSpace=wrap;html=1;fillColor=#dae8fc;strokeColor=#6c8ebf;align=left;spacingLeft=5;" parent="1" vertex="1">
          <mxGeometry x="640" y="310" width="300" height="90" as="geometry" />
        </mxCell>
        <mxCell id="create_tileset" value="Create 3D Tileset&#xa;Class: Map3D&#xa;Function: Create3DTileset(apiKey)&#xa;Variables Set: TileSet, CesiumOverlay&#xa;Creates: GameObject with Cesium3DTileset component&#xa;Dependencies: Cesium for Unity API" style="rounded=0;whiteSpace=wrap;html=1;fillColor=#dae8fc;strokeColor=#6c8ebf;align=left;spacingLeft=5;" parent="1" vertex="1">
          <mxGeometry x="640" y="440" width="300" height="90" as="geometry" />
        </mxCell>
        <mxCell id="create_subscene" value="Create Neighborhood Sub-Scene&#xa;Class: Map3D&#xa;Function: CreateNeighborhoodSubScene(name, lat, long, height, radius)&#xa;Variables Set: NeighborhoodSubScene, Georeference, MapCenter, MapBounds&#xa;Creates: CesiumSubScene that contains the playable area" style="rounded=0;whiteSpace=wrap;html=1;fillColor=#dae8fc;strokeColor=#6c8ebf;align=left;spacingLeft=5;" parent="1" vertex="1">
          <mxGeometry x="640" y="570" width="300" height="90" as="geometry" />
        </mxCell>
        <mxCell id="show_loading" value="Show Loading Screen?&#xa;Class: Map3D&#xa;Function: LoadMapAsync(showLoadingScreen)&#xa;Parameter: boolean showLoadingScreen" style="rhombus;whiteSpace=wrap;html=1;fillColor=#f8cecc;strokeColor=#b85450;align=center;" parent="1" vertex="1">
          <mxGeometry x="675" y="700" width="230" height="120" as="geometry" />
        </mxCell>
        <mxCell id="loading_screen" value="Display Loading Screen&#xa;Class: UIManager&#xa;Function: ShowLoadingScreen()&#xa;Actions: Shows progress indicator" style="rounded=0;whiteSpace=wrap;html=1;fillColor=#e1d5e7;strokeColor=#9673a6;align=left;spacingLeft=5;" parent="1" vertex="1">
          <mxGeometry x="970" y="715" width="230" height="90" as="geometry" />
        </mxCell>
        <mxCell id="load_map" value="Load Map Asynchronously&#xa;Class: Map3D&#xa;Function: LoadMapAsync()&#xa;Variables Set: IsLoaded = true (when complete)&#xa;Actions: Waits for Cesium3DTileset to load data&#xa;Events: Triggers OnMapLoaded when complete" style="rounded=0;whiteSpace=wrap;html=1;fillColor=#e1d5e7;strokeColor=#9673a6;align=left;spacingLeft=5;" parent="1" vertex="1">
          <mxGeometry x="640" y="860" width="300" height="90" as="geometry" />
        </mxCell>
        <mxCell id="setup_collision" value="Setup Collision For Tileset&#xa;Class: Map3D&#xa;Function: SetupCollisionForTileset()&#xa;Sub-Functions: AddCollidersAfterLoading(), CollectAllMeshFilters(), IsLikelyGround()&#xa;Actions: Adds MeshColliders to terrain, BoxColliders to buildings&#xa;Components Added: MeshCollider, BoxCollider" style="rounded=0;whiteSpace=wrap;html=1;fillColor=#e1d5e7;strokeColor=#9673a6;align=left;spacingLeft=5;" parent="1" vertex="1">
          <mxGeometry x="640" y="990" width="300" height="90" as="geometry" />
        </mxCell>
        <mxCell id="optimize" value="Optimize Tileset&#xa;Class: Map3D&#xa;Function: OptimizeTileset(PerformancePreset preset)&#xa;Sub-Function: EnableLODSystem()&#xa;Variables Modified: TileSet.maximumScreenSpaceError, TilesetLoadDistance&#xa;Actions: Sets LOD levels, configures performance settings" style="rounded=0;whiteSpace=wrap;html=1;fillColor=#e1d5e7;strokeColor=#9673a6;align=left;spacingLeft=5;" parent="1" vertex="1">
          <mxGeometry x="640" y="1120" width="300" height="90" as="geometry" />
        </mxCell>
        <mxCell id="place_elements" value="Place Game Elements&#xa;Class: Map3D&#xa;Functions: PlacePowerUps(strategy), PlaceObstacles(strategy), GenerateCheckpoints(count)&#xa;Variables Modified: PowerUps[], Obstacles[], Checkpoints[]&#xa;Sub-Functions: PlaceEvenlyOnTrack(), PlaceClustered(), PlaceFromCustomData()&#xa;Objects Created: PowerUpItem, Obstacle, Checkpoint instances" style="rounded=0;whiteSpace=wrap;html=1;fillColor=#fff2cc;strokeColor=#d6b656;align=left;spacingLeft=5;" parent="1" vertex="1">
          <mxGeometry x="640" y="1250" width="300" height="90" as="geometry" />
        </mxCell>
        <mxCell id="race_prep" value="Setup Starting Grid&#xa;Class: Map3D&#xa;Function: SetupStartingGrid(maxPlayers)&#xa;Variables Modified: StartingGrid, PlayerSpawnPoints[]&#xa;Actions: Creates spawn points, positions karts&#xa;Object Created: GameObject for starting line" style="rounded=0;whiteSpace=wrap;html=1;fillColor=#fff2cc;strokeColor=#d6b656;align=left;spacingLeft=5;" parent="1" vertex="1">
          <mxGeometry x="640" y="1380" width="300" height="90" as="geometry" />
        </mxCell>
        <mxCell id="start_race" value="Start Race&#xa;Class: RaceController&#xa;Function: StartCountdown()&#xa;Actions: Triggers countdown UI, enables kart controls&#xa;Events: Triggers OnRaceStart when countdown completes" style="rounded=0;whiteSpace=wrap;html=1;fillColor=#fff2cc;strokeColor=#d6b656;align=left;spacingLeft=5;" parent="1" vertex="1">
          <mxGeometry x="640" y="1510" width="300" height="90" as="geometry" />
        </mxCell>
        <mxCell id="runtime_loop" value="Runtime Game Loop&#xa;Functions Called Each Frame:&#xa;- Map3D.UpdateObstacles(deltaTime)&#xa;- KartController.UpdatePhysics(deltaTime)&#xa;- PowerUpManager.CheckCollisions()&#xa;- CheckpointManager.CheckPassing()&#xa;Events: OnPowerUpCollected, OnCheckpointPassed" style="rounded=0;whiteSpace=wrap;html=1;fillColor=#ffe6cc;strokeColor=#d79b00;align=left;spacingLeft=5;" parent="1" vertex="1">
          <mxGeometry x="640" y="1640" width="300" height="90" as="geometry" />
        </mxCell>
        <mxCell id="race_complete" value="Race Complete?&#xa;Class: RaceController&#xa;Function: CheckRaceComplete()&#xa;Conditions: All players finished or time expired" style="rhombus;whiteSpace=wrap;html=1;fillColor=#f8cecc;strokeColor=#b85450;" parent="1" vertex="1">
          <mxGeometry x="675" y="1770" width="230" height="120" as="geometry" />
        </mxCell>
        <mxCell id="end_race" value="End Race&#xa;Class: RaceController&#xa;Function: EndRace()&#xa;Actions: Shows results, disables kart controls&#xa;Events: Triggers OnRaceComplete" style="rounded=0;whiteSpace=wrap;html=1;fillColor=#fff2cc;strokeColor=#d6b656;align=left;spacingLeft=5;" parent="1" vertex="1">
          <mxGeometry x="640" y="1930" width="300" height="90" as="geometry" />
        </mxCell>
        <mxCell id="unload_map" value="Unload Map&#xa;Class: Map3D&#xa;Function: UnloadMap()&#xa;Variables Modified: IsLoaded = false, PowerUps.Clear(), etc.&#xa;Actions: Destroys all map-related GameObjects&#xa;Events: Triggers OnMapUnloaded" style="rounded=0;whiteSpace=wrap;html=1;fillColor=#f8cecc;strokeColor=#b85450;align=left;spacingLeft=5;" parent="1" vertex="1">
          <mxGeometry x="640" y="2060" width="300" height="90" as="geometry" />
        </mxCell>
        <mxCell id="end" value="End&#xa;Return to Menu or Exit Game" style="ellipse;whiteSpace=wrap;html=1;fillColor=#f8cecc;strokeColor=#b85450;" parent="1" vertex="1">
          <mxGeometry x="700" y="2190" width="180" height="60" as="geometry" />
        </mxCell>
        <mxCell id="variables_box" value="Key Map3D Variables:&#xa;&#xa;- MapName: string&#xa;- MapScale: float&#xa;- MapCenter: Vector3&#xa;- MapBounds: Bounds&#xa;- IsLoaded: bool&#xa;- TileSet: Cesium3DTileset&#xa;- CesiumOverlay: CesiumIonRasterOverlay&#xa;- Georeference: CesiumGeoreference&#xa;- NeighborhoodSubScene: CesiumSubScene&#xa;- PowerUps: List&lt;PowerUpItem&gt;&#xa;- Obstacles: List&lt;Obstacle&gt;&#xa;- Checkpoints: List&lt;Checkpoint&gt;&#xa;- StartingGrid: Transform&#xa;- PlayerSpawnPoints: List&lt;SpawnPoint&gt;&#xa;- ScreenSpaceError: float&#xa;- TilesetLoadDistance: float" style="rounded=0;whiteSpace=wrap;html=1;fillColor=#f5f5f5;strokeColor=#666666;fontColor=#333333;align=left;verticalAlign=top;fontSize=12;spacingLeft=5;spacingTop=5;" parent="1" vertex="1">
          <mxGeometry x="1400" y="280" width="280" height="280" as="geometry" />
        </mxCell>
        <mxCell id="methods_box" value="Key Map3D Methods:&#xa;&#xa;- Initialize(latitude, longitude, radius, settings)&#xa;- LoadMapAsync(showLoadingScreen)&#xa;- Create3DTileset(apiKey)&#xa;- CreateNeighborhoodSubScene(name, lat, long, height, radius)&#xa;- SetupCollisionForTileset()&#xa;- OptimizeTileset(PerformancePreset preset)&#xa;- EnableLODSystem()&#xa;- PlacePowerUps(PowerUpPlacementStrategy strategy)&#xa;- PlaceObstacles(ObstaclePlacementStrategy strategy)&#xa;- GenerateCheckpoints(int count)&#xa;- SetupStartingGrid(int maxPlayers)&#xa;- GetRandomSpawnPoint()&#xa;- GetNearestPowerUp(position, maxDistance)&#xa;- ResetAllPowerUps()&#xa;- UpdateObstacles(deltaTime)&#xa;- UnloadMap()" style="rounded=0;whiteSpace=wrap;html=1;fillColor=#f5f5f5;strokeColor=#666666;fontColor=#333333;align=left;verticalAlign=top;fontSize=12;spacingLeft=5;spacingTop=5;" parent="1" vertex="1">
          <mxGeometry x="1400" y="580" width="280" height="280" as="geometry" />
        </mxCell>
        <mxCell id="events_box" value="Key Map3D Events:&#xa;&#xa;- OnMapLoaded: Action&lt;Map3D&gt;&#xa;  Triggered when map is fully loaded&#xa;&#xa;- OnMapUnloaded: Action&lt;Map3D&gt;&#xa;  Triggered when map is unloaded&#xa;&#xa;- OnPowerUpCollected: Action&lt;PowerUpItem&gt;&#xa;  Triggered when kart collects power-up&#xa;&#xa;- OnCheckpointPassed: Action&lt;Checkpoint&gt;&#xa;  Triggered when kart passes checkpoint" style="rounded=0;whiteSpace=wrap;html=1;fillColor=#f5f5f5;strokeColor=#666666;fontColor=#333333;align=left;verticalAlign=top;fontSize=12;spacingLeft=5;spacingTop=5;" parent="1" vertex="1">
          <mxGeometry x="1400" y="880" width="280" height="180" as="geometry" />
        </mxCell>
        <mxCell id="system_diagram_title" value="Class Interaction Overview" style="text;html=1;strokeColor=none;fillColor=none;align=center;verticalAlign=middle;whiteSpace=wrap;rounded=0;fontSize=16;fontStyle=1" parent="1" vertex="1">
          <mxGeometry x="200" y="80" width="200" height="30" as="geometry" />
        </mxCell>
        <mxCell id="class_map3d" value="Map3D&#xa;Main Map Management Class" style="rounded=0;whiteSpace=wrap;html=1;fillColor=#dae8fc;strokeColor=#6c8ebf;fontStyle=1" parent="1" vertex="1">
          <mxGeometry x="220" y="270" width="160" height="60" as="geometry" />
        </mxCell>
        <mxCell id="class_cesium" value="Cesium Components&#xa;(3DTileset, Georeference, SubScene)" style="rounded=0;whiteSpace=wrap;html=1;fillColor=#d5e8d4;strokeColor=#82b366;fontStyle=1" parent="1" vertex="1">
          <mxGeometry x="60" y="400" width="160" height="60" as="geometry" />
        </mxCell>
        <mxCell id="class_gamemanager" value="GameManager&#xa;Game Coordination" style="rounded=0;whiteSpace=wrap;html=1;fillColor=#fff2cc;strokeColor=#d6b656;fontStyle=1" parent="1" vertex="1">
          <mxGeometry x="220" y="130" width="160" height="60" as="geometry" />
        </mxCell>
        <mxCell id="class_powerups" value="PowerUpItem&#xa;Power-Up Management" style="rounded=0;whiteSpace=wrap;html=1;fillColor=#e1d5e7;strokeColor=#9673a6;fontStyle=1" parent="1" vertex="1">
          <mxGeometry x="220" y="400" width="160" height="60" as="geometry" />
        </mxCell>
        <mxCell id="class_obstacles" value="Obstacle&#xa;Obstacle Management" style="rounded=0;whiteSpace=wrap;html=1;fillColor=#e1d5e7;strokeColor=#9673a6;fontStyle=1" parent="1" vertex="1">
          <mxGeometry x="220" y="490" width="160" height="60" as="geometry" />
        </mxCell>
        <mxCell id="class_checkpoints" value="Checkpoint&#xa;Race Progress Tracking" style="rounded=0;whiteSpace=wrap;html=1;fillColor=#e1d5e7;strokeColor=#9673a6;fontStyle=1" parent="1" vertex="1">
          <mxGeometry x="220" y="580" width="160" height="60" as="geometry" />
        </mxCell>
        <mxCell id="class_kart" value="KartController&#xa;Kart Physics &amp; Controls" style="rounded=0;whiteSpace=wrap;html=1;fillColor=#ffe6cc;strokeColor=#d79b00;fontStyle=1" parent="1" vertex="1">
          <mxGeometry x="380" y="400" width="160" height="60" as="geometry" />
        </mxCell>
        <mxCell id="class_race" value="RaceController&#xa;Race Flow &amp; Logic" style="rounded=0;whiteSpace=wrap;html=1;fillColor=#ffe6cc;strokeColor=#d79b00;fontStyle=1" parent="1" vertex="1">
          <mxGeometry x="380" y="490" width="160" height="60" as="geometry" />
        </mxCell>
        <mxCell id="conn_gm_map" value="Creates &amp; Initializes" style="endArrow=classic;html=1;exitX=0.5;exitY=1;exitDx=0;exitDy=0;entryX=0.5;entryY=0;entryDx=0;entryDy=0;" parent="1" source="class_gamemanager" target="class_map3d" edge="1">
          <mxGeometry x="-0.2" y="20" width="50" height="50" relative="1" as="geometry">
            <mxPoint x="280" y="350" as="sourcePoint" />
            <mxPoint x="330" y="300" as="targetPoint" />
            <mxPoint as="offset" />
          </mxGeometry>
        </mxCell>
        <mxCell id="conn_map_cesium" value="Creates &amp; Configures" style="endArrow=classic;html=1;exitX=0;exitY=0.5;exitDx=0;exitDy=0;entryX=0.5;entryY=0;entryDx=0;entryDy=0;" parent="1" source="class_map3d" target="class_cesium" edge="1">
          <mxGeometry x="-0.3333" y="-20" width="50" height="50" relative="1" as="geometry">
            <mxPoint x="280" y="350" as="sourcePoint" />
            <mxPoint x="330" y="300" as="targetPoint" />
            <Array as="points">
              <mxPoint x="140" y="300" />
            </Array>
            <mxPoint as="offset" />
          </mxGeometry>
        </mxCell>
        <mxCell id="conn_map_powerups" value="Creates &amp; Manages" style="endArrow=classic;html=1;exitX=0.5;exitY=1;exitDx=0;exitDy=0;entryX=0.5;entryY=0;entryDx=0;entryDy=0;" parent="1" source="class_map3d" target="class_powerups" edge="1">
          <mxGeometry width="50" height="50" relative="1" as="geometry">
            <mxPoint x="280" y="450" as="sourcePoint" />
            <mxPoint x="330" y="400" as="targetPoint" />
          </mxGeometry>
        </mxCell>
        <mxCell id="conn_map_obstacles" value="Creates &amp; Manages" style="endArrow=classic;html=1;exitX=0.5;exitY=1;exitDx=0;exitDy=0;entryX=0.5;entryY=0;entryDx=0;entryDy=0;" parent="1" source="class_powerups" target="class_obstacles" edge="1">
          <mxGeometry width="50" height="50" relative="1" as="geometry">
            <mxPoint x="280" y="450" as="sourcePoint" />
            <mxPoint x="330" y="400" as="targetPoint" />
          </mxGeometry>
        </mxCell>
        <mxCell id="conn_obstacles_checkpoints" value="Creates &amp; Manages" style="endArrow=classic;html=1;exitX=0.5;exitY=1;exitDx=0;exitDy=0;entryX=0.5;entryY=0;entryDx=0;entryDy=0;" parent="1" source="class_obstacles" target="class_checkpoints" edge="1">
          <mxGeometry width="50" height="50" relative="1" as="geometry">
            <mxPoint x="280" y="450" as="sourcePoint" />
            <mxPoint x="330" y="400" as="targetPoint" />
          </mxGeometry>
        </mxCell>
        <mxCell id="conn_gm_kart" value="Creates &amp; Configures" style="endArrow=classic;html=1;exitX=1;exitY=0.5;exitDx=0;exitDy=0;entryX=0.5;entryY=0;entryDx=0;entryDy=0;" parent="1" source="class_gamemanager" target="class_kart" edge="1">
          <mxGeometry x="-0.5135" y="20" width="50" height="50" relative="1" as="geometry">
            <mxPoint x="280" y="450" as="sourcePoint" />
            <mxPoint x="330" y="400" as="targetPoint" />
            <Array as="points">
              <mxPoint x="460" y="160" />
            </Array>
            <mxPoint as="offset" />
          </mxGeometry>
        </mxCell>
        <mxCell id="conn_gm_race" value="Creates &amp; Controls" style="endArrow=classic;html=1;exitX=1;exitY=0.75;exitDx=0;exitDy=0;entryX=0.5;entryY=0;entryDx=0;entryDy=0;" parent="1" source="class_gamemanager" target="class_race" edge="1">
          <mxGeometry x="-0.6744" y="20" width="50" height="50" relative="1" as="geometry">
            <mxPoint x="280" y="450" as="sourcePoint" />
            <mxPoint x="330" y="400" as="targetPoint" />
            <Array as="points">
              <mxPoint x="500" y="175" />
              <mxPoint x="500" y="380" />
              <mxPoint x="460" y="380" />
            </Array>
            <mxPoint as="offset" />
          </mxGeometry>
        </mxCell>
        <mxCell id="conn_kart_race" value="Interacts" style="endArrow=classic;startArrow=classic;html=1;exitX=0.5;exitY=1;exitDx=0;exitDy=0;entryX=0.5;entryY=0;entryDx=0;entryDy=0;" parent="1" source="class_kart" target="class_race" edge="1">
          <mxGeometry width="50" height="50" relative="1" as="geometry">
            <mxPoint x="280" y="450" as="sourcePoint" />
            <mxPoint x="330" y="400" as="targetPoint" />
          </mxGeometry>
        </mxCell>
        <mxCell id="conn_map_kart" value="Provides Environment" style="endArrow=classic;html=1;exitX=1;exitY=0.5;exitDx=0;exitDy=0;entryX=0;entryY=0.5;entryDx=0;entryDy=0;" parent="1" source="class_map3d" target="class_kart" edge="1">
          <mxGeometry width="50" height="50" relative="1" as="geometry">
            <mxPoint x="280" y="450" as="sourcePoint" />
            <mxPoint x="330" y="400" as="targetPoint" />
            <Array as="points">
              <mxPoint x="340" y="300" />
              <mxPoint x="340" y="430" />
            </Array>
          </mxGeometry>
        </mxCell>
        <mxCell id="conn_kart_powerups" value="Interacts" style="endArrow=classic;startArrow=classic;html=1;exitX=0;exitY=0.5;exitDx=0;exitDy=0;entryX=1;entryY=0.5;entryDx=0;entryDy=0;" parent="1" source="class_kart" target="class_powerups" edge="1">
          <mxGeometry width="50" height="50" relative="1" as="geometry">
            <mxPoint x="280" y="450" as="sourcePoint" />
            <mxPoint x="330" y="400" as="targetPoint" />
          </mxGeometry>
        </mxCell>
        <mxCell id="conn_kart_checkpoints" value="Interacts" style="endArrow=classic;startArrow=classic;html=1;exitX=0;exitY=0.5;exitDx=0;exitDy=0;entryX=1;entryY=0.5;entryDx=0;entryDy=0;" parent="1" source="class_race" target="class_obstacles" edge="1">
          <mxGeometry width="50" height="50" relative="1" as="geometry">
            <mxPoint x="280" y="450" as="sourcePoint" />
            <mxPoint x="330" y="400" as="targetPoint" />
          </mxGeometry>
        </mxCell>
        <mxCell id="conn_start_init" value="" style="endArrow=classic;html=1;exitX=0.5;exitY=1;exitDx=0;exitDy=0;entryX=0.5;entryY=0;entryDx=0;entryDy=0;" parent="1" source="start" target="init" edge="1">
          <mxGeometry width="50" height="50" relative="1" as="geometry">
            <mxPoint x="720" y="260" as="sourcePoint" />
            <mxPoint x="770" y="210" as="targetPoint" />
          </mxGeometry>
        </mxCell>
        <mxCell id="conn_init_api" value="" style="endArrow=classic;html=1;exitX=0.5;exitY=1;exitDx=0;exitDy=0;entryX=0.5;entryY=0;entryDx=0;entryDy=0;" parent="1" source="init" target="api_config" edge="1">
          <mxGeometry width="50" height="50" relative="1" as="geometry">
            <mxPoint x="720" y="360" as="sourcePoint" />
            <mxPoint x="770" y="310" as="targetPoint" />
          </mxGeometry>
        </mxCell>
        <mxCell id="conn_api_tileset" value="" style="endArrow=classic;html=1;exitX=0.5;exitY=1;exitDx=0;exitDy=0;entryX=0.5;entryY=0;entryDx=0;entryDy=0;" parent="1" source="api_config" target="create_tileset" edge="1">
          <mxGeometry width="50" height="50" relative="1" as="geometry">
            <mxPoint x="720" y="460" as="sourcePoint" />
            <mxPoint x="770" y="410" as="targetPoint" />
          </mxGeometry>
        </mxCell>
        <mxCell id="conn_tileset_subscene" value="" style="endArrow=classic;html=1;exitX=0.5;exitY=1;exitDx=0;exitDy=0;entryX=0.5;entryY=0;entryDx=0;entryDy=0;" parent="1" source="create_tileset" target="create_subscene" edge="1">
          <mxGeometry width="50" height="50" relative="1" as="geometry">
            <mxPoint x="720" y="560" as="sourcePoint" />
            <mxPoint x="770" y="510" as="targetPoint" />
          </mxGeometry>
        </mxCell>
        <mxCell id="conn_subscene_loading" value="" style="endArrow=classic;html=1;exitX=0.5;exitY=1;exitDx=0;exitDy=0;entryX=0.5;entryY=0;entryDx=0;entryDy=0;" parent="1" source="create_subscene" target="show_loading" edge="1">
          <mxGeometry width="50" height="50" relative="1" as="geometry">
            <mxPoint x="720" y="660" as="sourcePoint" />
            <mxPoint x="770" y="610" as="targetPoint" />
          </mxGeometry>
        </mxCell>
        <mxCell id="conn_loading_yes" value="Yes" style="endArrow=classic;html=1;exitX=1;exitY=0.5;exitDx=0;exitDy=0;entryX=0;entryY=0.5;entryDx=0;entryDy=0;" parent="1" source="show_loading" target="loading_screen" edge="1">
          <mxGeometry width="50" height="50" relative="1" as="geometry">
            <mxPoint x="820" y="760" as="sourcePoint" />
            <mxPoint x="870" y="710" as="targetPoint" />
          </mxGeometry>
        </mxCell>
        <mxCell id="conn_loading_loadmap" value="" style="endArrow=classic;html=1;exitX=0.5;exitY=1;exitDx=0;exitDy=0;entryX=1;entryY=0.5;entryDx=0;entryDy=0;" parent="1" source="loading_screen" target="load_map" edge="1">
          <mxGeometry width="50" height="50" relative="1" as="geometry">
            <mxPoint x="720" y="860" as="sourcePoint" />
            <mxPoint x="770" y="810" as="targetPoint" />
            <Array as="points">
              <mxPoint x="1085" y="905" />
            </Array>
          </mxGeometry>
        </mxCell>
        <mxCell id="conn_loading_no" value="No" style="endArrow=classic;html=1;exitX=0.5;exitY=1;exitDx=0;exitDy=0;entryX=0.5;entryY=0;entryDx=0;entryDy=0;" parent="1" source="show_loading" target="load_map" edge="1">
          <mxGeometry width="50" height="50" relative="1" as="geometry">
            <mxPoint x="720" y="860" as="sourcePoint" />
            <mxPoint x="770" y="810" as="targetPoint" />
          </mxGeometry>
        </mxCell>
        <mxCell id="conn_loadmap_collision" value="" style="endArrow=classic;html=1;exitX=0.5;exitY=1;exitDx=0;exitDy=0;entryX=0.5;entryY=0;entryDx=0;entryDy=0;" parent="1" source="load_map" target="setup_collision" edge="1">
          <mxGeometry width="50" height="50" relative="1" as="geometry">
            <mxPoint x="720" y="960" as="sourcePoint" />
            <mxPoint x="770" y="910" as="targetPoint" />
          </mxGeometry>
        </mxCell>
        <mxCell id="conn_collision_optimize" value="" style="endArrow=classic;html=1;exitX=0.5;exitY=1;exitDx=0;exitDy=0;entryX=0.5;entryY=0;entryDx=0;entryDy=0;" parent="1" source="setup_collision" target="optimize" edge="1">
          <mxGeometry width="50" height="50" relative="1" as="geometry">
            <mxPoint x="720" y="1060" as="sourcePoint" />
            <mxPoint x="770" y="1010" as="targetPoint" />
          </mxGeometry>
        </mxCell>
        <mxCell id="conn_optimize_elements" value="" style="endArrow=classic;html=1;exitX=0.5;exitY=1;exitDx=0;exitDy=0;entryX=0.5;entryY=0;entryDx=0;entryDy=0;" parent="1" source="optimize" target="place_elements" edge="1">
          <mxGeometry width="50" height="50" relative="1" as="geometry">
            <mxPoint x="720" y="1160" as="sourcePoint" />
            <mxPoint x="770" y="1110" as="targetPoint" />
          </mxGeometry>
        </mxCell>
        <mxCell id="conn_elements_prep" value="" style="endArrow=classic;html=1;exitX=0.5;exitY=1;exitDx=0;exitDy=0;entryX=0.5;entryY=0;entryDx=0;entryDy=0;" parent="1" source="place_elements" target="race_prep" edge="1">
          <mxGeometry width="50" height="50" relative="1" as="geometry">
            <mxPoint x="720" y="1260" as="sourcePoint" />
            <mxPoint x="770" y="1210" as="targetPoint" />
          </mxGeometry>
        </mxCell>
        <mxCell id="conn_prep_start" value="" style="endArrow=classic;html=1;exitX=0.5;exitY=1;exitDx=0;exitDy=0;entryX=0.5;entryY=0;entryDx=0;entryDy=0;" parent="1" source="race_prep" target="start_race" edge="1">
          <mxGeometry width="50" height="50" relative="1" as="geometry">
            <mxPoint x="720" y="1360" as="sourcePoint" />
            <mxPoint x="770" y="1310" as="targetPoint" />
          </mxGeometry>
        </mxCell>
        <mxCell id="conn_start_runtime" value="" style="endArrow=classic;html=1;exitX=0.5;exitY=1;exitDx=0;exitDy=0;entryX=0.5;entryY=0;entryDx=0;entryDy=0;" parent="1" source="start_race" target="runtime_loop" edge="1">
          <mxGeometry width="50" height="50" relative="1" as="geometry">
            <mxPoint x="720" y="1460" as="sourcePoint" />
            <mxPoint x="770" y="1410" as="targetPoint" />
          </mxGeometry>
        </mxCell>
        <mxCell id="conn_runtime_decision" value="" style="endArrow=classic;html=1;exitX=0.5;exitY=1;exitDx=0;exitDy=0;entryX=0.5;entryY=0;entryDx=0;entryDy=0;" parent="1" source="runtime_loop" target="race_complete" edge="1">
          <mxGeometry width="50" height="50" relative="1" as="geometry">
            <mxPoint x="720" y="1560" as="sourcePoint" />
            <mxPoint x="770" y="1510" as="targetPoint" />
          </mxGeometry>
        </mxCell>
        <mxCell id="conn_decision_continue" value="No" style="endArrow=classic;html=1;exitX=0;exitY=0.5;exitDx=0;exitDy=0;entryX=0;entryY=0.5;entryDx=0;entryDy=0;" parent="1" source="race_complete" target="runtime_loop" edge="1">
          <mxGeometry width="50" height="50" relative="1" as="geometry">
            <mxPoint x="720" y="1660" as="sourcePoint" />
            <mxPoint x="770" y="1610" as="targetPoint" />
            <Array as="points">
              <mxPoint x="580" y="1830" />
              <mxPoint x="580" y="1685" />
            </Array>
          </mxGeometry>
        </mxCell>
        <mxCell id="conn_decision_end" value="Yes" style="endArrow=classic;html=1;exitX=0.5;exitY=1;exitDx=0;exitDy=0;entryX=0.5;entryY=0;entryDx=0;entryDy=0;" parent="1" source="race_complete" target="end_race" edge="1">
          <mxGeometry width="50" height="50" relative="1" as="geometry">
            <mxPoint x="720" y="1760" as="sourcePoint" />
            <mxPoint x="770" y="1710" as="targetPoint" />
          </mxGeometry>
        </mxCell>
        <mxCell id="conn_endrace_unload" value="" style="endArrow=classic;html=1;exitX=0.5;exitY=1;exitDx=0;exitDy=0;entryX=0.5;entryY=0;entryDx=0;entryDy=0;" parent="1" source="end_race" target="unload_map" edge="1">
          <mxGeometry width="50" height="50" relative="1" as="geometry">
            <mxPoint x="720" y="1860" as="sourcePoint" />
            <mxPoint x="770" y="1810" as="targetPoint" />
          </mxGeometry>
        </mxCell>
        <mxCell id="conn_unload_end" value="" style="endArrow=classic;html=1;exitX=0.5;exitY=1;exitDx=0;exitDy=0;entryX=0.5;entryY=0;entryDx=0;entryDy=0;" parent="1" source="unload_map" target="end" edge="1">
          <mxGeometry width="50" height="50" relative="1" as="geometry">
            <mxPoint x="720" y="1960" as="sourcePoint" />
            <mxPoint x="770" y="1910" as="targetPoint" />
          </mxGeometry>
        </mxCell>
        <mxCell id="gameobjects_title" value="Game Object Relationships" style="text;html=1;strokeColor=none;fillColor=none;align=center;verticalAlign=middle;whiteSpace=wrap;rounded=0;fontSize=14;fontStyle=1" parent="1" vertex="1">
          <mxGeometry x="150" y="700" width="300" height="30" as="geometry" />
        </mxCell>
        <mxCell id="hierarchy_root" value="Map3D GameObject&#xa;(Root Object)" style="rounded=0;whiteSpace=wrap;html=1;fillColor=#dae8fc;strokeColor=#6c8ebf;fontStyle=1" parent="1" vertex="1">
          <mxGeometry x="220" y="750" width="160" height="60" as="geometry" />
        </mxCell>
        <mxCell id="hierarchy_tileset" value="Cesium3DTileset&#xa;GameObject" style="rounded=0;whiteSpace=wrap;html=1;fillColor=#d5e8d4;strokeColor=#82b366;" parent="1" vertex="1">
          <mxGeometry x="90" y="860" width="120" height="50" as="geometry" />
        </mxCell>
        <mxCell id="hierarchy_georef" value="CesiumGeoreference&#xa;GameObject" style="rounded=0;whiteSpace=wrap;html=1;fillColor=#d5e8d4;strokeColor=#82b366;" parent="1" vertex="1">
          <mxGeometry x="240" y="860" width="120" height="50" as="geometry" />
        </mxCell>
        <mxCell id="hierarchy_subscene" value="CesiumSubScene&#xa;GameObject" style="rounded=0;whiteSpace=wrap;html=1;fillColor=#d5e8d4;strokeColor=#82b366;" parent="1" vertex="1">
          <mxGeometry x="390" y="860" width="120" height="50" as="geometry" />
        </mxCell>
        <mxCell id="hierarchy_powerups" value="PowerUps&#xa;Container" style="rounded=0;whiteSpace=wrap;html=1;fillColor=#e1d5e7;strokeColor=#9673a6;" parent="1" vertex="1">
          <mxGeometry x="90" y="960" width="120" height="50" as="geometry" />
        </mxCell>
        <mxCell id="hierarchy_obstacles" value="Obstacles&#xa;Container" style="rounded=0;whiteSpace=wrap;html=1;fillColor=#e1d5e7;strokeColor=#9673a6;" parent="1" vertex="1">
          <mxGeometry x="240" y="960" width="120" height="50" as="geometry" />
        </mxCell>
        <mxCell id="hierarchy_checkpoints" value="Checkpoints&#xa;Container" style="rounded=0;whiteSpace=wrap;html=1;fillColor=#e1d5e7;strokeColor=#9673a6;" parent="1" vertex="1">
          <mxGeometry x="390" y="960" width="120" height="50" as="geometry" />
        </mxCell>
        <mxCell id="hierarchy_powerup1" value="PowerUpItem 1" style="rounded=0;whiteSpace=wrap;html=1;fillColor=#e1d5e7;strokeColor=#9673a6;" parent="1" vertex="1">
          <mxGeometry x="90" y="1040" width="120" height="30" as="geometry" />
        </mxCell>
        <mxCell id="hierarchy_powerup2" value="PowerUpItem 2" style="rounded=0;whiteSpace=wrap;html=1;fillColor=#e1d5e7;strokeColor=#9673a6;" parent="1" vertex="1">
          <mxGeometry x="90" y="1080" width="120" height="30" as="geometry" />
        </mxCell>
        <mxCell id="hierarchy_obstacle1" value="Obstacle 1" style="rounded=0;whiteSpace=wrap;html=1;fillColor=#e1d5e7;strokeColor=#9673a6;" parent="1" vertex="1">
          <mxGeometry x="240" y="1040" width="120" height="30" as="geometry" />
        </mxCell>
        <mxCell id="hierarchy_obstacle2" value="Obstacle 2" style="rounded=0;whiteSpace=wrap;html=1;fillColor=#e1d5e7;strokeColor=#9673a6;" parent="1" vertex="1">
          <mxGeometry x="240" y="1080" width="120" height="30" as="geometry" />
        </mxCell>
        <mxCell id="hierarchy_checkpoint1" value="Checkpoint 1" style="rounded=0;whiteSpace=wrap;html=1;fillColor=#e1d5e7;strokeColor=#9673a6;" parent="1" vertex="1">
          <mxGeometry x="390" y="1040" width="120" height="30" as="geometry" />
        </mxCell>
        <mxCell id="hierarchy_checkpoint2" value="Checkpoint 2" style="rounded=0;whiteSpace=wrap;html=1;fillColor=#e1d5e7;strokeColor=#9673a6;" parent="1" vertex="1">
          <mxGeometry x="390" y="1080" width="120" height="30" as="geometry" />
        </mxCell>
        <mxCell id="conn_hier_tileset" value="" style="endArrow=classic;html=1;exitX=0.25;exitY=1;exitDx=0;exitDy=0;entryX=0.5;entryY=0;entryDx=0;entryDy=0;" parent="1" source="hierarchy_root" target="hierarchy_tileset" edge="1">
          <mxGeometry width="50" height="50" relative="1" as="geometry">
            <mxPoint x="400" y="900" as="sourcePoint" />
            <mxPoint x="450" y="850" as="targetPoint" />
            <Array as="points">
              <mxPoint x="260" y="830" />
              <mxPoint x="150" y="830" />
            </Array>
          </mxGeometry>
        </mxCell>
        <mxCell id="conn_hier_georef" value="" style="endArrow=classic;html=1;exitX=0.5;exitY=1;exitDx=0;exitDy=0;entryX=0.5;entryY=0;entryDx=0;entryDy=0;" parent="1" source="hierarchy_root" target="hierarchy_georef" edge="1">
          <mxGeometry width="50" height="50" relative="1" as="geometry">
            <mxPoint x="400" y="900" as="sourcePoint" />
            <mxPoint x="450" y="850" as="targetPoint" />
          </mxGeometry>
        </mxCell>
        <mxCell id="conn_hier_subscene" value="" style="endArrow=classic;html=1;exitX=0.75;exitY=1;exitDx=0;exitDy=0;entryX=0.5;entryY=0;entryDx=0;entryDy=0;" parent="1" source="hierarchy_root" target="hierarchy_subscene" edge="1">
          <mxGeometry width="50" height="50" relative="1" as="geometry">
            <mxPoint x="400" y="900" as="sourcePoint" />
            <mxPoint x="450" y="850" as="targetPoint" />
            <Array as="points">
              <mxPoint x="340" y="830" />
              <mxPoint x="450" y="830" />
            </Array>
          </mxGeometry>
        </mxCell>
        <mxCell id="conn_hier_powerups" value="" style="endArrow=classic;html=1;exitX=0.5;exitY=1;exitDx=0;exitDy=0;entryX=0.5;entryY=0;entryDx=0;entryDy=0;" parent="1" source="hierarchy_tileset" target="hierarchy_powerups" edge="1">
          <mxGeometry width="50" height="50" relative="1" as="geometry">
            <mxPoint x="400" y="1000" as="sourcePoint" />
            <mxPoint x="450" y="950" as="targetPoint" />
          </mxGeometry>
        </mxCell>
        <mxCell id="conn_hier_obstacles" value="" style="endArrow=classic;html=1;exitX=0.5;exitY=1;exitDx=0;exitDy=0;entryX=0.5;entryY=0;entryDx=0;entryDy=0;" parent="1" source="hierarchy_georef" target="hierarchy_obstacles" edge="1">
          <mxGeometry width="50" height="50" relative="1" as="geometry">
            <mxPoint x="400" y="1000" as="sourcePoint" />
            <mxPoint x="450" y="950" as="targetPoint" />
          </mxGeometry>
        </mxCell>
        <mxCell id="conn_hier_checkpoints" value="" style="endArrow=classic;html=1;exitX=0.5;exitY=1;exitDx=0;exitDy=0;entryX=0.5;entryY=0;entryDx=0;entryDy=0;" parent="1" source="hierarchy_subscene" target="hierarchy_checkpoints" edge="1">
          <mxGeometry width="50" height="50" relative="1" as="geometry">
            <mxPoint x="400" y="1000" as="sourcePoint" />
            <mxPoint x="450" y="950" as="targetPoint" />
          </mxGeometry>
        </mxCell>
        <mxCell id="conn_hier_powerup1" value="" style="endArrow=classic;html=1;exitX=0.5;exitY=1;exitDx=0;exitDy=0;entryX=0.5;entryY=0;entryDx=0;entryDy=0;" parent="1" source="hierarchy_powerups" target="hierarchy_powerup1" edge="1">
          <mxGeometry width="50" height="50" relative="1" as="geometry">
            <mxPoint x="400" y="1100" as="sourcePoint" />
            <mxPoint x="450" y="1050" as="targetPoint" />
          </mxGeometry>
        </mxCell>
        <mxCell id="conn_hier_powerup2" value="" style="endArrow=classic;html=1;exitX=0.5;exitY=1;exitDx=0;exitDy=0;entryX=0.5;entryY=0;entryDx=0;entryDy=0;" parent="1" source="hierarchy_powerup1" target="hierarchy_powerup2" edge="1">
          <mxGeometry width="50" height="50" relative="1" as="geometry">
            <mxPoint x="400" y="1100" as="sourcePoint" />
            <mxPoint x="450" y="1050" as="targetPoint" />
          </mxGeometry>
        </mxCell>
        <mxCell id="conn_hier_obstacle1" value="" style="endArrow=classic;html=1;exitX=0.5;exitY=1;exitDx=0;exitDy=0;entryX=0.5;entryY=0;entryDx=0;entryDy=0;" parent="1" source="hierarchy_obstacles" target="hierarchy_obstacle1" edge="1">
          <mxGeometry width="50" height="50" relative="1" as="geometry">
            <mxPoint x="400" y="1100" as="sourcePoint" />
            <mxPoint x="450" y="1050" as="targetPoint" />
          </mxGeometry>
        </mxCell>
        <mxCell id="conn_hier_obstacle2" value="" style="endArrow=classic;html=1;exitX=0.5;exitY=1;exitDx=0;exitDy=0;entryX=0.5;entryY=0;entryDx=0;entryDy=0;" parent="1" source="hierarchy_obstacle1" target="hierarchy_obstacle2" edge="1">
          <mxGeometry width="50" height="50" relative="1" as="geometry">
            <mxPoint x="400" y="1100" as="sourcePoint" />
            <mxPoint x="450" y="1050" as="targetPoint" />
          </mxGeometry>
        </mxCell>
        <mxCell id="conn_hier_checkpoint1" value="" style="endArrow=classic;html=1;exitX=0.5;exitY=1;exitDx=0;exitDy=0;entryX=0.5;entryY=0;entryDx=0;entryDy=0;" parent="1" source="hierarchy_checkpoints" target="hierarchy_checkpoint1" edge="1">
          <mxGeometry width="50" height="50" relative="1" as="geometry">
            <mxPoint x="400" y="1100" as="sourcePoint" />
            <mxPoint x="450" y="1050" as="targetPoint" />
          </mxGeometry>
        </mxCell>
        <mxCell id="conn_hier_checkpoint2" value="" style="endArrow=classic;html=1;exitX=0.5;exitY=1;exitDx=0;exitDy=0;entryX=0.5;entryY=0;entryDx=0;entryDy=0;" parent="1" source="hierarchy_checkpoint1" target="hierarchy_checkpoint2" edge="1">
          <mxGeometry width="50" height="50" relative="1" as="geometry">
            <mxPoint x="400" y="1100" as="sourcePoint" />
            <mxPoint x="450" y="1050" as="targetPoint" />
          </mxGeometry>
        </mxCell>
        <mxCell id="legend_title" value="Legend" style="text;html=1;strokeColor=none;fillColor=none;align=center;verticalAlign=middle;whiteSpace=wrap;rounded=0;fontSize=14;fontStyle=1" parent="1" vertex="1">
          <mxGeometry x="1400" y="1100" width="120" height="30" as="geometry" />
        </mxCell>
        <mxCell id="legend_init" value="" style="rounded=0;whiteSpace=wrap;html=1;fillColor=#dae8fc;strokeColor=#6c8ebf;" parent="1" vertex="1">
          <mxGeometry x="1400" y="1140" width="30" height="20" as="geometry" />
        </mxCell>
        <mxCell id="legend_init_text" value="Initialization Phase" style="text;html=1;strokeColor=none;fillColor=none;align=left;verticalAlign=middle;whiteSpace=wrap;rounded=0;" parent="1" vertex="1">
          <mxGeometry x="1440" y="1140" width="120" height="20" as="geometry" />
        </mxCell>
        <mxCell id="legend_loading" value="" style="rounded=0;whiteSpace=wrap;html=1;fillColor=#e1d5e7;strokeColor=#9673a6;" parent="1" vertex="1">
          <mxGeometry x="1400" y="1170" width="30" height="20" as="geometry" />
        </mxCell>
        <mxCell id="legend_loading_text" value="Loading Phase" style="text;html=1;strokeColor=none;fillColor=none;align=left;verticalAlign=middle;whiteSpace=wrap;rounded=0;" parent="1" vertex="1">
          <mxGeometry x="1440" y="1170" width="120" height="20" as="geometry" />
        </mxCell>
        <mxCell id="legend_game" value="" style="rounded=0;whiteSpace=wrap;html=1;fillColor=#fff2cc;strokeColor=#d6b656;" parent="1" vertex="1">
          <mxGeometry x="1400" y="1200" width="30" height="20" as="geometry" />
        </mxCell>
        <mxCell id="legend_game_text" value="Game Elements" style="text;html=1;strokeColor=none;fillColor=none;align=left;verticalAlign=middle;whiteSpace=wrap;rounded=0;" parent="1" vertex="1">
          <mxGeometry x="1440" y="1200" width="120" height="20" as="geometry" />
        </mxCell>
        <mxCell id="legend_runtime" value="" style="rounded=0;whiteSpace=wrap;html=1;fillColor=#ffe6cc;strokeColor=#d79b00;" parent="1" vertex="1">
          <mxGeometry x="1400" y="1230" width="30" height="20" as="geometry" />
        </mxCell>
        <mxCell id="legend_runtime_text" value="Runtime Loop" style="text;html=1;strokeColor=none;fillColor=none;align=left;verticalAlign=middle;whiteSpace=wrap;rounded=0;" parent="1" vertex="1">
          <mxGeometry x="1440" y="1230" width="120" height="20" as="geometry" />
        </mxCell>
        <mxCell id="legend_decision" value="" style="rhombus;whiteSpace=wrap;html=1;fillColor=#f8cecc;strokeColor=#b85450;" parent="1" vertex="1">
          <mxGeometry x="1400" y="1260" width="30" height="30" as="geometry" />
        </mxCell>
        <mxCell id="legend_decision_text" value="Decision" style="text;html=1;strokeColor=none;fillColor=none;align=left;verticalAlign=middle;whiteSpace=wrap;rounded=0;" parent="1" vertex="1">
          <mxGeometry x="1440" y="1265" width="120" height="20" as="geometry" />
        </mxCell>
        <mxCell id="legend_cesium" value="" style="rounded=0;whiteSpace=wrap;html=1;fillColor=#d5e8d4;strokeColor=#82b366;" parent="1" vertex="1">
          <mxGeometry x="1400" y="1300" width="30" height="20" as="geometry" />
        </mxCell>
        <mxCell id="legend_cesium_text" value="Cesium Components" style="text;html=1;strokeColor=none;fillColor=none;align=left;verticalAlign=middle;whiteSpace=wrap;rounded=0;" parent="1" vertex="1">
          <mxGeometry x="1440" y="1300" width="120" height="20" as="geometry" />
        </mxCell>
      </root>
    </mxGraphModel>
  </diagram>
</mxfile>
